<svg width="183" height="86" viewBox="0 0 183 86" fill="none" xmlns="http://www.w3.org/2000/svg">
<path d="M73.4353 58.5395H66.7156V58.7007L68.167 60.0984V75.1236L66.7156 76.5213V76.6826H73.489C81.1764 76.6826 83.3804 71.4681 83.3804 67.1675C83.3804 61.3886 80.0206 58.5395 73.4353 58.5395ZM73.4084 76.145V59.0233H73.5428C76.9564 59.0233 77.8434 61.5768 77.8434 67.5976C77.8434 73.941 76.9026 76.145 73.9191 76.145H73.4084ZM96.7864 73.6184V73.2153L97.0283 68.4577C97.2702 64.7753 97.324 61.9799 93.0503 61.9799C92.6202 61.9799 87.5132 62.2756 84.3415 69.1566L84.4222 69.291L89.3948 67.8933C88.4271 64.7753 89.0185 63.6464 90.1205 63.5389C91.4107 63.4583 92.2708 65.1785 92.2439 67.9201L89.2872 69.2103C87.0294 70.2586 84.6103 71.6294 84.6103 74.156C84.6103 75.9569 85.8736 77.032 87.7014 77.032C90.0936 77.032 91.3838 75.2312 92.2708 73.2421H92.4052C92.1901 76.2257 93.1847 77.0052 94.448 77.0052C96.1144 77.0052 97.2434 75.043 98.883 72.7314L98.7754 72.597L96.7864 73.6184ZM90.3355 73.7797C89.8517 73.7797 89.1528 73.4034 89.1528 72.3014C89.1528 71.1456 90.013 70.0436 92.2439 68.5115L92.1901 72.3283C91.6526 73.3765 90.8731 73.7797 90.3355 73.7797ZM104.282 65.4742C103.153 64.7216 102.561 64.1571 102.561 63.5389C102.561 62.9744 102.938 62.8132 103.448 62.8132C104.819 62.8132 107.749 64.5603 110.356 68.7265H110.544V61.8187H110.383L109.12 62.8669C108.072 62.2756 106.728 61.9531 105.357 61.9531C102.212 61.9531 100.035 63.7271 100.035 66.4149C100.035 68.1889 101.056 69.3985 102.991 70.6618L106.136 72.7583C108.233 74.1023 108.743 74.6936 108.743 75.2849C108.743 75.8763 108.34 76.1182 107.883 76.1182C105.867 76.1182 101.782 73.2959 99.5778 69.0222H99.4165L99.981 76.5213C101.916 76.1988 103.018 77.032 105.518 77.032C109.98 77.032 111.243 74.371 111.243 72.4895C111.243 70.3392 109.604 69.2372 107.695 67.9201L104.282 65.4742ZM125.986 66.7106C125.986 64.1302 124.884 62.0068 121.874 62.0068C121.067 62.0068 119.777 63.2701 118.111 65.4742V55.8247H117.949L111.686 57.7331V57.8944L113.38 58.4857V75.4731L112.143 76.5213V76.6826H119.374V76.5213L118.111 75.4731V66.2805C118.514 65.7161 119.024 65.286 119.75 65.286C120.556 65.286 121.228 65.6892 121.228 67.0331V75.4731L119.965 76.5213V76.6826H127.196V76.5213L125.959 75.4731L125.986 66.7106Z" fill="white"/>
<path d="M9.08502 35.5611C12.7405 38.0877 12.5255 43.3828 11.531 45.56L10.9665 47.1727H10.859L6.5853 36.9588L7.92924 35.5611V35.3998H0.188151V35.5611L8.33242 53.9462H8.62808L16.5304 35.5611V35.3998H9.08502V35.5611ZM27.6236 50.4788V50.0756L27.8655 45.3181C28.1074 41.6357 28.1612 38.8403 23.8875 38.8403C23.4574 38.8403 18.3504 39.136 15.1787 46.0169L15.2594 46.1513L20.2319 44.7536C19.2643 41.6357 19.8556 40.5068 20.9577 40.3993C22.2478 40.3186 23.108 42.0389 23.0811 44.7805L20.1244 46.0707C17.8666 47.1189 15.4475 48.4898 15.4475 51.0164C15.4475 52.8172 16.7108 53.8924 18.5386 53.8924C20.9308 53.8924 22.221 52.0915 23.108 50.1025H23.2424C23.0273 53.086 24.0218 53.8655 25.2851 53.8655C26.9516 53.8655 28.0805 51.9034 29.7201 49.5918L29.6126 49.4574L27.6236 50.4788ZM21.1727 50.6401C20.6889 50.6401 19.99 50.2638 19.99 49.1617C19.99 48.0059 20.8502 46.9039 23.0811 45.3718L23.0273 49.1886C22.4898 50.2369 21.7103 50.6401 21.1727 50.6401ZM51.8155 43.5709C51.8155 40.9906 50.7135 38.8672 47.7031 38.8672C46.8967 38.8672 45.5797 40.1573 43.9132 42.3883C43.5906 40.3724 42.408 38.8672 39.8814 38.8672C39.0212 38.8672 37.6236 40.2649 35.8227 42.7377H35.7958C36.0377 39.6735 35.0432 38.894 33.753 38.894C32.1134 38.894 30.9576 40.8562 29.318 43.1409L29.4255 43.2753L31.4414 42.2808V52.3334L30.1781 53.3817V53.543H37.4085V53.3817L36.1721 52.3334V43.0602C36.5484 42.5227 37.0591 42.1464 37.7579 42.1464C38.5643 42.1464 39.2094 42.5496 39.2094 43.8935V52.3334L37.973 53.3817V53.543H45.2034V53.3817L43.9401 52.3334L43.9938 43.5709C43.9938 43.4097 43.9938 43.2484 43.9669 43.0871C44.3701 42.5496 44.8808 42.1464 45.5797 42.1464C46.386 42.1464 47.058 42.5496 47.058 43.8935V52.3334L45.7947 53.3817V53.543H53.0251V53.3817L51.7887 52.3334L51.8155 43.5709ZM63.1764 39.0553C62.827 39.0016 61.3218 40.5068 59.6553 42.3883H59.6284C59.736 39.6735 58.7952 38.9478 57.5588 38.9478C55.8923 38.9478 54.7365 40.9099 53.0969 43.2215L53.2044 43.3559L55.2203 42.3345V59.0531L53.957 60.1014V60.2627H61.2143V60.1014L59.951 59.0531V53.7042C60.381 53.7849 60.838 53.8118 61.3218 53.8118C62.9076 53.8118 68.2296 52.6022 68.2296 45.775C68.2296 42.2001 66.7513 39.4854 63.1764 39.0553ZM61.6712 53.1129C60.9455 53.1129 60.1929 52.4947 59.9779 50.6401V42.6571C60.381 42.2808 60.9993 42.0926 61.3487 42.0926C62.9883 42.0926 63.5259 44.673 63.5259 48.5973C63.5259 52.2797 62.6926 53.1129 61.6712 53.1129ZM72.5431 37.6039C73.9139 37.6039 74.8277 36.7169 74.8277 35.3998C74.8277 34.1096 73.9139 33.2495 72.5431 33.2495C71.1185 33.2495 70.1508 34.1096 70.1508 35.3998C70.1508 36.7169 71.1185 37.6039 72.5431 37.6039ZM70.2046 52.3334L68.9413 53.3817V53.543H76.1717V53.3817L74.9353 52.3334L74.989 40.5336V39.2435H68.9951V39.4047L70.2315 40.5336L70.2046 52.3334ZM89.5233 40.3455C89.362 40.5336 89.2276 40.6143 88.932 40.6143C87.9912 40.6143 86.8623 38.8672 86.2441 38.8672C85.7334 38.8672 84.1475 41.3131 83.1799 42.6302H82.9649C83.1799 39.6466 82.1854 38.894 80.9221 38.894C79.2825 38.894 78.1267 40.8562 76.4871 43.1409L76.5946 43.2753L78.6105 42.2808V52.3334L77.3472 53.3817V53.543H84.5776V53.3817L83.3412 52.3603V43.2484C83.5025 42.8452 83.825 42.6033 83.9863 42.6033C84.9002 42.6033 85.4646 44.1085 86.5129 44.1085C88.0181 44.1085 89.3083 41.2594 89.6577 40.4261L89.5233 40.3455ZM101.388 49.5918C100.313 50.1562 99.6138 50.3444 98.8612 50.3444C96.0926 50.3444 94.1842 48.3016 93.1897 46.0438H96.6302C97.7591 46.0438 101.334 44.4042 101.334 43.6516C101.119 40.9637 99.5062 38.8403 96.1195 38.8403C94.6143 38.8403 88.7547 40.238 88.7547 46.6082C88.7547 51.1508 92.0877 53.9462 96.3883 53.9462C97.3022 53.9462 99.2375 52.2259 101.522 49.7262L101.388 49.5918ZM93.8348 40.0767C95.3132 40.0767 96.4689 42.442 96.5227 45.56H93.0016C92.5984 44.4848 92.3834 43.4097 92.3834 42.4689C92.3834 40.8562 93.0553 40.0767 93.8348 40.0767Z" fill="#D31717"/>
<path d="M42.9057 18.1003C39.5996 16.1382 38.2826 15.4124 38.2826 14.2835C38.2826 13.6653 38.7395 13.2353 39.6265 13.2353C42.3144 13.2353 46.0505 15.7887 49.0878 19.8743H49.2491V12.0795H49.1147L47.3945 13.1546C46.3999 12.5364 44.8947 12.0257 43.0132 12.0257C39.2771 12.0257 36.2398 13.3965 36.186 17.2133C36.1323 20.1431 38.0406 21.5139 40.2985 22.8579L43.4164 24.7663C45.9699 26.2715 48.1739 27.2929 48.1739 28.5024C48.1739 29.0131 47.8245 29.5507 46.615 29.5507C44.5722 29.5507 39.0083 27.9648 35.756 21.5139L35.5678 21.5408L36.0247 29.8195C38.4438 30.1689 40.6479 31.0559 43.2551 31.0559C47.9052 31.0559 50.2167 28.2067 50.2167 25.3307C50.2167 23.046 48.7384 21.5946 46.1312 20.0625L42.9057 18.1003ZM65.7039 20.5463C65.7039 17.9659 64.575 15.8425 61.5915 15.8425C60.7314 15.8425 59.3337 17.2402 57.5328 19.713H57.5059C57.7478 16.6489 56.7533 15.8694 55.4631 15.8694C53.8235 15.8694 52.6677 17.8315 51.0281 20.1162L51.1356 20.2506L53.1516 19.2561V29.3088L51.8883 30.357V30.5183H59.1186V30.357L57.8822 29.3088V20.0356C58.2585 19.498 58.7692 19.1217 59.4681 19.1217C60.2744 19.1217 60.9195 19.5249 60.9195 20.8688V29.3088L59.6831 30.357V30.5183H66.9135V30.357L65.6502 29.3088L65.7039 20.5463ZM80.1286 26.5671C79.0534 27.1316 78.3546 27.3197 77.602 27.3197C74.8335 27.3197 72.9251 25.277 71.9306 23.0191H75.3711C76.5 23.0191 80.0748 21.3795 80.0748 20.6269C79.8598 17.939 78.2471 15.8156 74.8604 15.8156C73.3551 15.8156 67.4956 17.2133 67.4956 23.5836C67.4956 28.1261 70.8285 30.9215 75.1291 30.9215C76.043 30.9215 77.9783 29.2013 80.263 26.7015L80.1286 26.5671ZM72.5757 17.052C74.054 17.052 75.2098 19.4174 75.2635 22.5353H71.7424C71.3392 21.4602 71.1242 20.385 71.1242 19.4443C71.1242 17.8315 71.7962 17.052 72.5757 17.052ZM93.1955 27.4541V27.0509L93.4374 22.2934C93.6793 18.611 93.733 15.8156 89.4593 15.8156C89.0292 15.8156 83.9223 16.1113 80.7506 22.9923L80.8312 23.1266L85.8038 21.729C84.8362 18.611 85.4275 17.4821 86.5295 17.3746C87.8197 17.294 88.6798 19.0142 88.6529 21.7558L85.6963 23.046C83.4385 24.0943 81.0194 25.4651 81.0194 27.9917C81.0194 29.7926 82.2827 30.8677 84.1104 30.8677C86.5026 30.8677 87.7928 29.0669 88.6798 27.0778H88.8142C88.5992 30.0614 89.5937 30.8409 90.857 30.8409C92.5235 30.8409 93.6524 28.8787 95.292 26.5671L95.1845 26.4327L93.1955 27.4541ZM86.7446 27.6154C86.2607 27.6154 85.5619 27.2391 85.5619 26.1371C85.5619 24.9813 86.422 23.8793 88.6529 22.3472L88.5992 26.164C88.0616 27.2122 87.2821 27.6154 86.7446 27.6154ZM101.986 23.261L110.265 16.3532V16.2188H103.519V16.3801C104.432 17.3208 104.728 20.4388 102.013 22.5891L101.395 23.1804V9.66039H101.234L94.9711 11.5688V11.7301L96.6645 12.3214V29.3088L95.4281 30.357V30.5183H102.658V30.357L101.395 29.3088V23.7449L101.771 23.4223L104.674 29.3356L103.787 30.357V30.5183H110.319V30.357L106.099 21.7558L101.986 23.261ZM116.142 16.3801C118.05 17.8047 118.964 21.3795 118.023 24.39L117.647 25.4382H117.459L113.991 17.3746L115.389 16.3801V16.2188H108.642V16.3801L115.281 30.7602L108.105 37.0767V37.238H112.997L122.297 16.3801V16.2188H116.142V16.3801Z" fill="white"/>
<g clip-path="url(#clip0)">
<path fill-rule="evenodd" clip-rule="evenodd" d="M133.818 73.1487C133.818 73.1487 131.716 76.7861 131.716 78.3419C131.716 79.5043 132.66 80.445 133.818 80.445C134.976 80.445 135.92 79.5043 135.92 78.3419C135.92 76.7861 133.818 73.1487 133.818 73.1487Z" fill="#D31717"/>
</g>
<path fill-rule="evenodd" clip-rule="evenodd" d="M154.276 36.3743C154.276 36.3743 153.998 40.8174 156.127 42.9464C156.127 42.9464 156.127 38.9753 156.127 37.6423C156.127 37.3646 156.016 37.0962 155.821 36.9018C155.757 36.837 155.683 36.763 155.618 36.6982C155.433 36.5131 155.173 36.402 154.905 36.3927C154.618 36.3835 154.276 36.3743 154.276 36.3743Z" fill="white"/>
<path fill-rule="evenodd" clip-rule="evenodd" d="M166.899 36.3743C166.899 36.3743 167.177 40.8174 165.048 42.9464C165.048 42.9464 165.048 38.9753 165.048 37.6423C165.048 37.3646 165.159 37.0962 165.353 36.9018C165.418 36.837 165.492 36.763 165.557 36.6982C165.742 36.5131 166.001 36.402 166.27 36.3927C166.557 36.3835 166.899 36.3743 166.899 36.3743Z" fill="white"/>
<path fill-rule="evenodd" clip-rule="evenodd" d="M157.837 39.4339C158.327 39.4067 158.373 39.3885 158.382 39.1616C158.391 38.9346 158.391 37.5636 158.382 37.2549C158.373 36.9462 157.465 36.9553 157.111 36.9826C156.757 37.0098 156.739 37.7997 156.748 38.1629C156.757 38.526 156.947 39.4793 157.837 39.4339Z" fill="white"/>
<path fill-rule="evenodd" clip-rule="evenodd" d="M163.335 39.4339C162.844 39.4067 162.799 39.3885 162.79 39.1616C162.781 38.9346 162.781 37.5636 162.79 37.2549C162.799 36.9462 163.707 36.9553 164.061 36.9826C164.415 37.0098 164.433 37.7997 164.424 38.1629C164.415 38.526 164.224 39.4793 163.335 39.4339Z" fill="white"/>
<path fill-rule="evenodd" clip-rule="evenodd" d="M160.312 37.5415C160.312 37.4371 160.274 37.3421 160.198 37.2662C160.122 37.1902 160.027 37.1523 159.923 37.1523H159.296C159.078 37.1523 158.897 37.3327 158.897 37.5415C158.897 37.8928 158.897 38.3864 158.897 38.5763C158.897 38.6428 158.916 38.6997 158.935 38.7567C158.992 38.8611 159.087 39.0604 159.163 39.2123C159.23 39.3452 159.363 39.4307 159.515 39.4307C159.638 39.4307 159.78 39.4307 159.923 39.4307C160.027 39.4307 160.122 39.3928 160.198 39.3168C160.274 39.2409 160.312 39.1459 160.312 39.0415C160.312 38.6238 160.312 37.9592 160.312 37.5415Z" fill="white"/>
<path fill-rule="evenodd" clip-rule="evenodd" d="M160.829 37.5415C160.829 37.4371 160.867 37.3421 160.943 37.2662C161.019 37.1902 161.113 37.1523 161.218 37.1523H161.844C162.063 37.1523 162.243 37.3327 162.243 37.5415C162.243 37.8928 162.243 38.3864 162.243 38.5763C162.243 38.6428 162.224 38.6997 162.205 38.7567C162.148 38.8611 162.053 39.0604 161.977 39.2123C161.911 39.3452 161.778 39.4307 161.626 39.4307C161.503 39.4307 161.36 39.4307 161.218 39.4307C161.113 39.4307 161.019 39.3928 160.943 39.3168C160.867 39.2409 160.829 39.1459 160.829 39.0415C160.829 38.6238 160.829 37.9592 160.829 37.5415Z" fill="white"/>
<path fill-rule="evenodd" clip-rule="evenodd" d="M143.826 16.736L139.383 13.5051L138.172 14.7167L142.21 23.6016L140.191 15.9283L143.826 16.736Z" fill="white"/>
<path fill-rule="evenodd" clip-rule="evenodd" d="M157.506 30.9009C157.351 30.7495 157.291 30.5374 157.342 30.3253C157.542 29.5378 158.048 27.5084 158.399 26.0848C158.463 25.8425 158.369 25.5695 158.163 25.4181C157.957 25.2666 157.681 25.2667 157.46 25.3879C157.403 25.4182 157.354 25.4487 157.318 25.479C157.279 25.5093 157.242 25.5392 157.218 25.5695C156.733 26.2359 152.108 32.7787 152.108 32.7787C152.108 32.7787 148.943 29.4163 147.895 28.2956C147.692 28.0835 147.631 27.7506 147.734 27.478C147.998 26.7813 148.473 25.5092 148.473 25.5092H155.743L158.166 22.1773C158.166 22.1773 156.894 20.2689 156.479 19.6329C156.397 19.5117 156.261 19.4512 156.115 19.4512C155.225 19.4512 152.108 19.4512 152.108 19.4512C152.108 19.4512 151.251 17.6341 149.306 17.5735C147.359 17.5432 146.217 19.4512 146.217 19.4512C146.217 19.4512 147.892 15.9981 149.864 15.9981C152.096 15.9981 146.517 15.5438 146.517 15.5438V11.7576C146.517 11.7576 149.906 10.1521 151.569 9.36457C152.145 9.09196 152.802 9.06203 153.402 9.27405C155.543 10.001 160.604 11.7576 160.604 11.7576C160.604 11.7576 160.592 30.8705 160.589 33.6572C160.589 33.7178 160.556 33.7482 160.505 33.7785C160.45 33.8088 160.392 33.778 160.35 33.7477C159.741 33.1419 158.124 31.537 157.506 30.9009Z" fill="white"/>
<path fill-rule="evenodd" clip-rule="evenodd" d="M177.346 16.736L181.788 13.5051L183 14.7167L178.961 23.6016L180.981 15.9283L177.346 16.736Z" fill="white"/>
<path fill-rule="evenodd" clip-rule="evenodd" d="M151.185 21.021C151.185 20.9078 151.254 20.8121 151.359 20.7686C151.463 20.725 151.585 20.7511 151.664 20.8295C152.308 21.474 153.458 22.6237 154.102 23.2682C154.181 23.3466 154.207 23.4685 154.163 23.573C154.12 23.6775 154.024 23.7472 153.911 23.7472C153.527 23.7472 153.04 23.7472 152.578 23.7472C152.212 23.7472 151.855 23.5992 151.594 23.3379C151.333 23.0766 151.185 22.7195 151.185 22.3537V21.021Z" fill="#CF0000"/>
<path fill-rule="evenodd" clip-rule="evenodd" d="M170.021 21.021C170.021 20.9078 169.951 20.8121 169.846 20.7686C169.742 20.725 169.62 20.7511 169.541 20.8295C168.897 21.474 167.747 22.6237 167.103 23.2682C167.024 23.3466 166.998 23.4685 167.042 23.573C167.085 23.6775 167.181 23.7472 167.294 23.7472C167.678 23.7472 168.165 23.7472 168.627 23.7472C168.993 23.7472 169.35 23.5992 169.611 23.3379C169.872 23.0766 170.021 22.7195 170.021 22.3537V21.021Z" fill="#CF0000"/>
<path fill-rule="evenodd" clip-rule="evenodd" d="M154.435 5.19617C154.339 5.11778 154.304 4.98707 154.348 4.86513C154.391 4.7519 154.496 4.67358 154.626 4.67358C155.367 4.67358 156.412 4.67358 156.943 4.67358C157.152 4.67358 157.344 4.78684 157.448 4.96975C157.901 5.74491 159.138 7.90489 159.835 9.11554C159.878 9.19392 159.861 9.29837 159.791 9.35063C159.722 9.4116 159.626 9.41173 159.556 9.35948C158.249 8.29689 155.645 6.17165 154.435 5.19617Z" fill="white"/>
<path fill-rule="evenodd" clip-rule="evenodd" d="M146.088 9.65183C146.088 9.65183 144.686 8.44121 143.658 7.55282C143.484 7.39605 143.423 7.15221 143.51 6.93447C143.597 6.71672 143.806 6.57737 144.041 6.58608C145.687 6.65576 147.49 7.14343 148.962 8.34537L146.088 9.65183Z" fill="white"/>
<g clip-path="url(#clip1)">
<path fill-rule="evenodd" clip-rule="evenodd" d="M22.8578 7.5144C22.8578 7.5144 18.3496 15.3144 18.3496 18.6507C18.3496 21.1433 20.3739 23.1605 22.8578 23.1605C25.3417 23.1605 27.366 21.1433 27.366 18.6507C27.366 15.3144 22.8578 7.5144 22.8578 7.5144Z" fill="#D31717"/>
</g>
<g clip-path="url(#clip2)">
<path fill-rule="evenodd" clip-rule="evenodd" d="M32.5101 -0.00170898C32.5101 -0.00170898 30.4023 3.64502 30.4023 5.20485C30.4023 6.37023 31.3488 7.31333 32.5101 7.31333C33.6714 7.31333 34.6178 6.37023 34.6178 5.20485C34.6178 3.64502 32.5101 -0.00170898 32.5101 -0.00170898Z" fill="#D31717"/>
</g>
<path d="M30.6853 31.2922L0.40918 31.2922" stroke="#D31717" stroke-width="1.21917"/>
<path d="M50.1921 58.7234L0.40918 58.7234" stroke="#D31717" stroke-width="1.21917"/>
<defs>
<clipPath id="clip0">
<rect width="7.2963" height="7.2963" fill="white" transform="translate(130.171 73.1504)"/>
</clipPath>
<clipPath id="clip1">
<rect width="15.6461" height="15.6461" fill="white" transform="translate(15.0361 7.51831)"/>
</clipPath>
<clipPath id="clip2">
<rect width="7.31504" height="7.31504" fill="white" transform="translate(28.8555)"/>
</clipPath>
</defs>
</svg>
